<?xml version="1.0" standalone="no"?>
<!DOCTYPE svg PUBLIC "-//W3C//DTD SVG 20010904//EN"
 "http://www.w3.org/TR/2001/REC-SVG-20010904/DTD/svg10.dtd">
<svg version="1.0" xmlns="http://www.w3.org/2000/svg"
 width="225.000000pt" height="225.000000pt" viewBox="0 0 225.000000 225.000000"
 preserveAspectRatio="xMidYMid meet">
<metadata>
Created by potrace 1.14, written by Peter Selinger 2001-2017
</metadata>
<g transform="translate(0.000000,225.000000) scale(0.100000,-0.100000)"
fill="#000000" stroke="none">
<path d="M0 1125 l0 -1125 1125 0 1125 0 0 1125 0 1125 -1125 0 -1125 0 0
-1125z m1339 569 c19 -16 37 -45 48 -80 l17 -54 143 0 c145 0 175 -6 200 -39
17 -22 18 -846 2 -857 -6 -3 -42 -6 -79 -6 -52 1 -97 11 -191 42 -114 39 -130
42 -210 38 -70 -2 -93 -7 -116 -24 -28 -21 -29 -21 -53 -3 -33 25 -123 41
-180 33 -25 -3 -92 -22 -150 -41 -106 -36 -207 -51 -254 -39 l-26 6 0 421 0
420 25 24 c24 24 28 25 180 25 134 0 155 2 155 16 0 33 44 115 69 129 20 11
70 14 208 15 180 0 182 0 212 -26z m-916 -258 l27 -6 0 -400 0 -399 36 -7 c68
-13 176 2 291 40 136 44 221 48 290 15 42 -20 43 -22 43 -70 l0 -48 -32 19
c-48 28 -150 42 -223 30 -33 -5 -100 -24 -150 -41 -96 -33 -209 -47 -289 -35
l-46 7 0 454 c0 359 3 454 13 451 6 -3 24 -7 40 -10z m1451 -895 c-3 -3 -56
-6 -117 -6 -100 0 -122 3 -209 33 -53 18 -123 37 -155 42 -70 12 -174 -3 -220
-30 l-33 -19 0 48 c0 48 1 50 43 70 69 33 154 29 290 -15 115 -38 223 -53 291
-40 l36 7 0 399 0 400 28 6 c15 3 32 7 37 8 11 3 20 -892 9 -903z"/>
<path d="M1010 1454 c-174 -63 -270 -240 -226 -415 43 -170 199 -282 370 -266
82 8 146 36 207 94 181 169 139 455 -83 569 -68 35 -197 44 -268 18z m224 -99
c47 -22 99 -73 122 -118 10 -17 19 -61 22 -97 17 -238 -269 -368 -437 -199
-50 50 -71 103 -71 180 0 112 64 206 165 244 52 19 149 14 199 -10z"/>
<path d="M1520 1360 l0 -40 80 0 80 0 0 40 0 40 -80 0 -80 0 0 -40z"/>
</g>
</svg>
